<svg width="27" height="24" viewBox="0 0 27 24" fill="none" xmlns="http://www.w3.org/2000/svg">
<rect x="0.5" y="0.5" width="26" height="19" rx="2.5" fill="white" stroke="#003781"/>
<rect x="6" y="23" width="15" height="1" rx="0.5" fill="#003781"/>
<rect x="5.63574" y="14.4985" width="14.7941" height="0.704481" rx="0.35224" fill="#003781"/>
<path d="M21.9062 7.98751L21.0126 7.09375C20.9829 7.06403 20.9476 7.04045 20.9088 7.02436C20.87 7.00828 20.8284 7 20.7863 7C20.7443 7 20.7027 7.00828 20.6639 7.02436C20.625 7.04045 20.5897 7.06403 20.56 7.09375L18.0938 9.56005C18.064 9.58966 18.0403 9.6249 18.0242 9.66373C18.0081 9.70256 17.9999 9.74421 18 9.78624V10.68C18 10.7649 18.0337 10.8463 18.0937 10.9063C18.1537 10.9663 18.2351 11 18.32 11H19.2138C19.2559 11.0001 19.2975 10.9919 19.3363 10.9758C19.3752 10.9597 19.4104 10.936 19.44 10.9062L21.9062 8.4401C21.936 8.41038 21.9595 8.3751 21.9756 8.33628C21.9917 8.29745 22 8.25583 22 8.21381C22 8.17178 21.9917 8.13016 21.9756 8.09133C21.9595 8.05251 21.936 8.01723 21.9062 7.98751ZM19.2138 10.68H18.32V9.78624L20.08 8.02631L20.9738 8.92008L19.2138 10.68ZM21.2 8.69369L20.3062 7.80012L20.7862 7.32014L21.68 8.21371L21.2 8.69369Z" fill="#003781"/>
<path d="M10.3128 14.6357H8.91505L12.0557 5.90847H13.577L16.7176 14.6357H15.3199L12.8525 7.4937H12.7844L10.3128 14.6357ZM10.5471 11.2181H15.0812V12.3261H10.5471V11.2181Z" fill="#003781"/>
<path d="M14.4174 12V11.2685L18.242 5.67188H14.3855V4.72727H19.5843V5.45881L15.7598 11.0554H19.6163V12H14.4174Z" fill="#003781"/>
<line x1="10.5" y1="20" x2="10.5" y2="23" stroke="#003781"/>
<line x1="16.5" y1="20" x2="16.5" y2="23" stroke="#003781"/>
</svg>
